<svg xmlns="http://www.w3.org/2000/svg" viewBox="0 0 64 64">
  <defs>
    <linearGradient id="bg" x1="0" y1="0" x2="1" y2="1">
      <stop offset="0" stop-color="#0b4560"/><stop offset="1" stop-color="#02121c"/>
    </linearGradient>
    <linearGradient id="tooth" x1="0" y1="0" x2="0" y2="1">
      <stop offset="0" stop-color="#7ee8dc"/><stop offset="1" stop-color="#38bdf8"/>
    </linearGradient>
  </defs>
  <rect width="64" height="64" rx="14" fill="url(#bg)"/>
  <path d="M32 12c-8.5 0-14 5.6-14 12.4 0 5.5 2.8 8.3 4 13.8 1 4.3 1.9 12 4.7 12 3.2 0 2.1-9.3 5.3-9.3s2.1 9.3 5.3 9.3c2.8 0 3.7-7.7 4.7-12 1.2-5.5 4-8.3 4-13.8C46 17.6 40.5 12 32 12z"
        fill="none" stroke="url(#tooth)" stroke-width="3.4" stroke-linejoin="round"/>
  <path d="M24.5 26h4.2l2-3.4 2.9 6 2-2.6h4" fill="none" stroke="url(#tooth)" stroke-width="2.6" stroke-linecap="round" stroke-linejoin="round"/>
</svg>
